<svg xmlns="http://www.w3.org/2000/svg" width="50" height="50" viewBox="0 0 32 32"><path d="M31.936 14.272c-.192-1.792-.64-3.456-1.408-5.056-1.728-3.584-4.416-6.208-8.064-7.872C21.056.704 19.648.256 18.112.128c-3.072-.384-6.08 0-8.896 1.408C6.272 2.88 3.968 4.992 2.304 7.744 1.216 9.6.448 11.584.128 13.76c-.384 3.072 0 6.08 1.344 8.896 1.6 3.52 4.224 6.08 7.616 7.744 1.664.832 3.456 1.344 5.312 1.472 2.688.256 5.312-.128 7.808-1.216 3.776-1.664 6.528-4.352 8.32-8.064.704-1.472 1.152-3.072 1.344-4.736.064-.384.064-.704.128-1.088v-1.472c0-.32-.064-.64-.064-1.024zM16 30.784C7.872 30.784 1.216 24.128 1.216 16S7.872 1.216 16 1.216 30.784 7.872 30.784 16 24.128 30.784 16 30.784zm3.648-11.456c-.256.256-.704.256-.96 0l-5.76-5.76c-.256-.256-.256-.64 0-.896s.64-.256.896 0l5.76 5.76c.32.256.32.64.064.896zm-6.656 0c-.256-.256-.256-.704 0-.96l5.76-5.76c.256-.256.64-.256.896 0s.256.64 0 .896l-5.76 5.76c-.256.32-.64.32-.896.064z"/></svg>