<!-- Generated by IcoMoon.io -->
<svg version="1.1" xmlns="http://www.w3.org/2000/svg" width="50" height="50" viewBox="0 0 32 32">
<title>clear</title>
<path d="M31.936 14.272c-0.192-1.792-0.64-3.456-1.408-5.056-1.728-3.584-4.416-6.208-8.064-7.872-1.408-0.64-2.816-1.088-4.352-1.216-3.072-0.384-6.080 0-8.896 1.408-2.944 1.344-5.248 3.456-6.912 6.208-1.088 1.856-1.856 3.84-2.176 6.016-0.384 3.072 0 6.080 1.344 8.896 1.6 3.52 4.224 6.080 7.616 7.744 1.664 0.832 3.456 1.344 5.312 1.472 2.688 0.256 5.312-0.128 7.808-1.216 3.776-1.664 6.528-4.352 8.32-8.064 0.704-1.472 1.152-3.072 1.344-4.736 0.064-0.384 0.064-0.704 0.128-1.088 0-0.064 0-0.128 0-0.128 0-0.448 0-0.896 0-1.344 0-0.32-0.064-0.64-0.064-1.024zM16 30.784c-8.128 0-14.784-6.656-14.784-14.784s6.656-14.784 14.784-14.784 14.784 6.656 14.784 14.784-6.656 14.784-14.784 14.784zM19.648 19.328v0c-0.256 0.256-0.704 0.256-0.96 0l-5.76-5.76c-0.256-0.256-0.256-0.64 0-0.896v0c0.256-0.256 0.64-0.256 0.896 0l5.76 5.76c0.32 0.256 0.32 0.64 0.064 0.896zM12.992 19.328v0c-0.256-0.256-0.256-0.704 0-0.96l5.76-5.76c0.256-0.256 0.64-0.256 0.896 0v0c0.256 0.256 0.256 0.64 0 0.896l-5.76 5.76c-0.256 0.32-0.64 0.32-0.896 0.064z"></path>
</svg>
