<svg xmlns="http://www.w3.org/2000/svg" width="50" height="50" viewBox="0 0 32 32"><path d="M31.04 0H.96C.448 0 0 .448 0 .96v30.144c0 .448.384.896.96.896h30.144c.512 0 .96-.448.96-.96V.96C32 .448 31.616 0 31.04 0zM1.856 1.856H28.8L1.856 28.8V1.856zm28.288 28.288H3.2L30.144 3.2v26.944zM12.224 9.152h-1.216V7.936c0-.512-.384-.96-.896-.96s-.96.384-.96.96v1.28H7.936c-.512 0-.96.384-.96.896s.384.96.96.96h1.28v1.216c0 .512.384.96.896.96s.96-.384.96-.96v-1.28h1.28c.512 0 .96-.448.96-.96-.128-.512-.576-.896-1.088-.896zm11.904 11.84h-4.352c-.512 0-.96.448-.96.96s.448.96.96.96h4.352c.512 0 .96-.448.96-.96s-.448-.96-.96-.96z"/></svg>