<!-- Generated by IcoMoon.io -->
<svg version="1.1" xmlns="http://www.w3.org/2000/svg" width="50" height="50" viewBox="0 0 32 32">
<title></title>
<path d="M31.040 0h-30.080c-0.512 0-0.96 0.448-0.96 0.96v30.144c0 0.448 0.384 0.896 0.96 0.896h30.144c0.512 0 0.96-0.448 0.96-0.96v-30.080c-0.064-0.512-0.448-0.96-1.024-0.96zM1.856 1.856h26.944l-26.944 26.944v-26.944zM30.144 30.144h-26.944l26.944-26.944v26.944zM12.224 9.152h-1.216c0 0 0 0 0 0v-1.216c0-0.512-0.384-0.96-0.896-0.96s-0.96 0.384-0.96 0.96v1.28c0 0 0 0 0 0h-1.216c-0.512 0-0.96 0.384-0.96 0.896s0.384 0.96 0.96 0.96h1.28c0 0 0 0 0 0v1.216c0 0.512 0.384 0.96 0.896 0.96s0.96-0.384 0.96-0.96v-1.28c0 0 0 0 0 0h1.28c0.512 0 0.96-0.448 0.96-0.96-0.128-0.512-0.576-0.896-1.088-0.896zM24.128 20.992h-4.352c-0.512 0-0.96 0.448-0.96 0.96s0.448 0.96 0.96 0.96h4.352c0.512 0 0.96-0.448 0.96-0.96s-0.448-0.96-0.96-0.96z"></path>
</svg>
