<!-- Generated by IcoMoon.io -->
<svg version="1.1" xmlns="http://www.w3.org/2000/svg" width="50" height="50" viewBox="0 0 32 32">
<title>film</title>
<path d="M29.12 6.784h-11.648c0-1.472-1.28-2.624-2.88-2.624h-1.472v-1.984c0-0.384-0.32-0.64-0.704-0.64h-7.296c-0.384 0-0.704 0.32-0.704 0.64v1.984h-1.536c-1.6 0-2.88 1.216-2.88 2.624v21.184c0 1.472 1.28 2.624 2.88 2.624h11.648c1.6 0 2.88-1.216 2.88-2.624h5.824c1.6 0 2.88-1.216 2.88-2.624v-5.312c0-1.472 1.28-2.624 2.88-2.624s2.88-1.216 2.88-2.624v-5.312c0.128-1.472-1.152-2.688-2.752-2.688zM5.824 2.816h5.824v1.344h-5.824v-1.344zM16 28.032c0 0.704-0.64 1.344-1.472 1.344h-11.648c-0.832 0-1.472-0.576-1.472-1.344v-21.248c0-0.704 0.64-1.344 1.472-1.344h11.648c0.832 0 1.472 0.576 1.472 1.344v21.248zM29.824 10.752h0.704v3.968c0 0.704-0.64 1.344-1.472 1.344-2.432 0-4.352 1.792-4.352 3.968v3.968h-1.92c-0.384 0-0.704 0.32-0.704 0.64s0.32 0.64 0.704 0.64h1.92c0 0.704-0.64 1.344-1.472 1.344h-5.824v-1.344h0.704c0.384 0 0.704-0.32 0.704-0.64s-0.32-0.64-0.704-0.64h-0.704v-13.248h0.704c0.384 0 0.704-0.32 0.704-0.64 0-0.384-0.32-0.64-0.704-0.64h-0.704v-1.344h11.648c0.832 0 1.472 0.576 1.472 1.344h-0.704c-0.384 0-0.704 0.32-0.704 0.64 0 0.384 0.32 0.64 0.704 0.64zM25.152 9.472h-2.304c-0.384 0-0.704 0.32-0.704 0.64 0 0.384 0.32 0.64 0.704 0.64h2.304c0.384 0 0.704-0.32 0.704-0.64 0.064-0.384-0.32-0.64-0.704-0.64z"></path>
</svg>
