<!-- Generated by IcoMoon.io -->
<svg version="1.1" xmlns="http://www.w3.org/2000/svg" width="32" height="32" viewBox="0 0 32 32">
<title></title>
<path d="M21.082 23.137v0l-10.168-0.003c-0.247 0-0.456-0.185-0.485-0.431-0.118-0.998-0.467-2.407-1.464-3.443-0.001-0.002-0.002-0.003-0.004-0.005-2.465-2.082-3.878-5.118-3.878-8.339 0.001-6.019 4.898-10.916 10.916-10.916s10.915 4.897 10.915 10.916c0 3.243-1.431 6.297-3.924 8.379-0.957 1.002-1.306 2.412-1.424 3.411-0.027 0.246-0.236 0.431-0.484 0.431zM11.338 22.157l9.32 0.003c0.183-1.101 0.625-2.492 1.668-3.578 2.31-1.932 3.613-4.714 3.613-7.667-0.001-5.48-4.459-9.939-9.94-9.939s-9.939 4.459-9.939 9.94c0 2.95 1.302 5.731 3.573 7.628 0.029 0.024 0.056 0.053 0.078 0.083 1.013 1.078 1.445 2.445 1.626 3.53zM21.082 26.089h-10.168c-0.27 0-0.488-0.219-0.488-0.488s0.219-0.488 0.488-0.488h10.168c0.27 0 0.488 0.219 0.488 0.488s-0.218 0.488-0.488 0.488zM21.082 29.044h-10.168c-0.27 0-0.488-0.219-0.488-0.488s0.219-0.488 0.488-0.488h10.168c0.27 0 0.488 0.219 0.488 0.488s-0.218 0.488-0.488 0.488zM18.127 32h-4.257c-0.27 0-0.488-0.219-0.488-0.488s0.219-0.488 0.488-0.488h4.257c0.27 0 0.488 0.219 0.488 0.488s-0.219 0.488-0.488 0.488z"></path>
</svg>
