<svg xmlns="http://www.w3.org/2000/svg" width="32" height="32"><path d="m21.082 23.137-10.168-.003c-.247 0-.456-.185-.485-.431-.118-.998-.467-2.407-1.464-3.443-.001-.002-.002-.003-.004-.005-2.465-2.082-3.878-5.118-3.878-8.339C5.084 4.897 9.981 0 15.999 0s10.915 4.897 10.915 10.916c0 3.243-1.431 6.297-3.924 8.379-.957 1.002-1.306 2.412-1.424 3.411-.027.246-.236.431-.484.431zm-9.744-.98 9.32.003c.183-1.101.625-2.492 1.668-3.578 2.31-1.932 3.613-4.714 3.613-7.667-.001-5.48-4.459-9.939-9.94-9.939S6.06 5.435 6.06 10.916c0 2.95 1.302 5.731 3.573 7.628.029.024.056.053.078.083 1.013 1.078 1.445 2.445 1.626 3.53zm9.744 3.932H10.914c-.27 0-.488-.219-.488-.488s.219-.488.488-.488h10.168c.27 0 .488.219.488.488s-.218.488-.488.488zm0 2.955H10.914c-.27 0-.488-.219-.488-.488s.219-.488.488-.488h10.168c.27 0 .488.219.488.488s-.218.488-.488.488zM18.127 32H13.87c-.27 0-.488-.219-.488-.488s.219-.488.488-.488h4.257c.27 0 .488.219.488.488s-.219.488-.488.488z"/></svg>