<!-- Generated by IcoMoon.io -->
<svg version="1.1" xmlns="http://www.w3.org/2000/svg" width="50" height="50" viewBox="0 0 32 32">
<title>load</title>
<path d="M3.712 18.24c0 0.128 0 0.256 0 0.32 0.128 0.64 0.256 1.28 0.448 1.92 0.128 0.512 0.384 0.96 0.64 1.472 0.128 0.384 0.32 0.704 0.576 1.088s0.512 0.768 0.768 1.152 1.152 1.408 1.856 1.984c0.384 0.32 0.768 0.576 1.152 0.832 0.32 0.192 0.64 0.384 0.96 0.64 0.192 0.128 0.384 0.192 0.576 0.32 0.256 0.128 0.512 0.192 0.832 0.32 0.192 0.064 0.384 0.128 0.576 0.192 0.448 0.128 0.832 0.256 1.28 0.384 0.064 0 0.128 0.064 0.192 0.064 1.152 0.128 2.304 0.384 3.52 0.192 0.64-0.064 1.344-0.192 1.984-0.32 0.384-0.064 0.768-0.192 1.152-0.32 0.448-0.192 0.96-0.384 1.408-0.576 0.384-0.192 0.704-0.384 1.088-0.576 0.256-0.128 0.512-0.32 0.768-0.512 0.512-0.448 1.088-0.896 1.536-1.344 0.384-0.384 0.768-0.896 1.088-1.344 0.32-0.384 0.576-0.832 0.832-1.28 0.192-0.384 0.384-0.768 0.576-1.152 0.128-0.32 0.256-0.64 0.384-0.96s0.192-0.576 0.256-0.896c0.128-0.448 0.192-0.832 0.256-1.28 0.064-0.256 0.192-0.384 0.32-0.512 0.064-0.064 0.256-0.064 0.384 0s0.32 0.192 0.32 0.384c0 0.128 0 0.32-0.064 0.448-0.128 0.64-0.256 1.344-0.512 1.984-0.128 0.512-0.448 0.96-0.64 1.472-0.256 0.704-0.64 1.28-1.088 1.92-0.384 0.576-0.832 1.088-1.28 1.6-0.64 0.704-1.408 1.344-2.176 1.856-0.32 0.192-0.64 0.384-0.96 0.576-0.384 0.192-0.768 0.448-1.152 0.64-0.256 0.128-0.576 0.256-0.832 0.32-0.192 0.064-0.448 0.192-0.64 0.256-0.448 0.128-0.896 0.256-1.344 0.384-0.064 0-0.064 0-0.128 0.064-1.344 0.192-2.688 0.384-4.032 0.192-0.64-0.064-1.28-0.192-1.856-0.384-0.384-0.064-0.768-0.192-1.152-0.32-0.512-0.192-1.024-0.384-1.472-0.64-0.192-0.064-0.384-0.192-0.576-0.256-1.088-0.576-2.048-1.28-3.008-2.112-0.704-0.64-1.344-1.408-1.92-2.24-0.32-0.448-0.576-0.96-0.832-1.472-0.192-0.448-0.448-0.832-0.576-1.28-0.384-0.96-0.64-1.984-0.768-3.072 0-0.064-0.064-0.128-0.128-0.256-0.064 0.064-0.128 0.064-0.192 0.128-0.32 0.32-0.704 0.704-1.024 1.024-0.192 0.192-0.384 0.384-0.64 0.576-0.192 0.192-0.448 0.128-0.64-0.128-0.128-0.128-0.128-0.512 0.064-0.64 0.64-0.64 1.344-1.344 1.984-1.984 0.192-0.192 0.384-0.384 0.576-0.576 0.192-0.256 0.576-0.256 0.768 0 0.832 0.832 1.664 1.664 2.56 2.496 0.256 0.256 0.256 0.64-0.064 0.832-0.128 0.064-0.256 0.128-0.384 0-0.256-0.192-0.448-0.384-0.704-0.64-0.32-0.32-0.64-0.64-0.896-0.896 0.128 0.064 0.064 0 0-0.064zM28.288 13.44c0-0.064 0-0.128 0-0.256-0.192-0.64-0.384-1.216-0.704-1.856-0.256-0.512-0.576-1.024-0.832-1.536-0.448-0.768-1.024-1.472-1.728-2.112-0.512-0.512-1.024-0.96-1.6-1.344s-1.152-0.768-1.728-1.088c-0.448-0.256-0.96-0.384-1.472-0.576-0.384-0.128-0.768-0.192-1.088-0.32-0.064 0-0.064 0-0.128-0.064-1.408-0.256-2.816-0.384-4.224-0.256-0.64 0.064-1.216 0.192-1.792 0.384-0.576 0.128-1.216 0.384-1.792 0.576-0.256 0.064-0.448 0.192-0.704 0.32-0.32 0.192-0.64 0.384-0.96 0.576s-0.64 0.384-0.896 0.576c-0.512 0.448-1.024 0.832-1.472 1.344-0.512 0.512-0.896 1.024-1.344 1.6-0.32 0.448-0.64 0.96-0.896 1.408s-0.384 0.896-0.576 1.408c-0.128 0.384-0.32 0.768-0.448 1.152-0.064 0.256-0.064 0.448-0.32 0.576-0.192 0.128-0.384 0-0.512-0.128-0.064-0.064-0.128-0.192-0.128-0.32 0.128-0.448 0.256-0.896 0.384-1.344 0.064-0.256 0.192-0.512 0.32-0.832s0.256-0.576 0.384-0.832c0.192-0.32 0.32-0.64 0.576-0.96 0.192-0.448 0.512-0.832 0.832-1.216 0.448-0.512 0.896-1.024 1.344-1.536 0.384-0.384 0.832-0.768 1.28-1.088s0.896-0.64 1.344-0.896c0.384-0.192 0.768-0.384 1.152-0.576 0.32-0.128 0.576-0.256 0.896-0.384s0.64-0.256 1.024-0.32c0.512-0.128 1.088-0.192 1.6-0.32 0.704-0.192 1.472-0.128 2.176-0.128 0.96-0.064 1.92 0.128 2.88 0.32 0.384 0.064 0.768 0.192 1.088 0.32s0.64 0.192 0.96 0.32c0.448 0.192 0.896 0.384 1.344 0.64 0.32 0.192 0.64 0.32 0.96 0.512 0.576 0.448 1.216 0.832 1.728 1.344 0.576 0.512 1.088 1.088 1.6 1.664 0.32 0.384 0.64 0.832 0.896 1.28 0.192 0.32 0.448 0.704 0.64 1.088 0.128 0.256 0.256 0.512 0.32 0.832 0.064 0.192 0.128 0.32 0.192 0.512 0.128 0.384 0.256 0.768 0.384 1.216 0.064 0.128 0.064 0.256 0.064 0.384 0 0.064 0.064 0.128 0.128 0.128 0 0 0.128 0 0.128-0.064 0.448-0.448 0.832-0.896 1.28-1.344 0.128-0.128 0.256-0.256 0.384-0.32 0.256-0.192 0.384-0.128 0.64 0.128 0.128 0.128 0.128 0.512-0.064 0.64-0.832 0.832-1.728 1.728-2.56 2.56-0.192 0.192-0.512 0.192-0.704 0-0.64-0.64-1.28-1.28-1.92-1.92-0.192-0.192-0.384-0.384-0.64-0.576-0.256-0.256-0.256-0.448-0.128-0.704 0.192-0.256 0.384-0.256 0.64-0.128 0.128 0.128 0.256 0.256 0.384 0.384 0.448 0.384 0.832 0.832 1.216 1.216 0.128-0.064 0.128-0.064 0.192-0.064z"></path>
</svg>
