<svg xmlns="http://www.w3.org/2000/svg" width="50" height="50" viewBox="0 0 32 32"><path d="M3.712 18.24v.32c.128.64.256 1.28.448 1.92.128.512.384.96.64 1.472.128.384.32.704.576 1.088l.768 1.152C6.4 24.576 7.296 25.6 8 26.176c.384.32.768.576 1.152.832.32.192.64.384.96.64.192.128.384.192.576.32.256.128.512.192.832.32l.576.192c.448.128.832.256 1.28.384.064 0 .128.064.192.064 1.152.128 2.304.384 3.52.192.64-.064 1.344-.192 1.984-.32.384-.064.768-.192 1.152-.32.448-.192.96-.384 1.408-.576.384-.192.704-.384 1.088-.576.256-.128.512-.32.768-.512.512-.448 1.088-.896 1.536-1.344.384-.384.768-.896 1.088-1.344.32-.384.576-.832.832-1.28l.576-1.152.384-.96c.128-.32.192-.576.256-.896.128-.448.192-.832.256-1.28.064-.256.192-.384.32-.512.064-.064.256-.064.384 0s.32.192.32.384c0 .128 0 .32-.064.448-.128.64-.256 1.344-.512 1.984-.128.512-.448.96-.64 1.472-.256.704-.64 1.28-1.088 1.92-.384.576-.832 1.088-1.28 1.6-.64.704-1.408 1.344-2.176 1.856l-.96.576c-.384.192-.768.448-1.152.64-.256.128-.576.256-.832.32-.192.064-.448.192-.64.256l-1.344.384c-.064 0-.064 0-.128.064-1.344.192-2.688.384-4.032.192-.64-.064-1.28-.192-1.856-.384-.384-.064-.768-.192-1.152-.32-.512-.192-1.024-.384-1.472-.64-.192-.064-.384-.192-.576-.256-1.088-.576-2.048-1.28-3.008-2.112-.704-.64-1.344-1.408-1.92-2.24-.32-.448-.576-.96-.832-1.472-.192-.448-.448-.832-.576-1.28-.384-.96-.64-1.984-.768-3.072 0-.064-.064-.128-.128-.256-.064.064-.128.064-.192.128l-1.024 1.024c-.192.192-.384.384-.64.576-.192.192-.448.128-.64-.128-.128-.128-.128-.512.064-.64l1.984-1.984.576-.576c.192-.256.576-.256.768 0 .832.832 1.664 1.664 2.56 2.496.256.256.256.64-.064.832-.128.064-.256.128-.384 0-.256-.192-.448-.384-.704-.64l-.896-.896c.128.064.064 0 0-.064zm24.576-4.8v-.256c-.192-.64-.384-1.216-.704-1.856-.256-.512-.576-1.024-.832-1.536-.448-.768-1.024-1.472-1.728-2.112-.512-.512-1.024-.96-1.6-1.344s-1.152-.768-1.728-1.088c-.448-.256-.96-.384-1.472-.576-.384-.128-.768-.192-1.088-.32-.064 0-.064 0-.128-.064-1.408-.256-2.816-.384-4.224-.256-.64.064-1.216.192-1.792.384-.576.128-1.216.384-1.792.576-.256.064-.448.192-.704.32l-.96.576c-.32.192-.64.384-.896.576-.512.448-1.024.832-1.472 1.344-.512.512-.896 1.024-1.344 1.6-.32.448-.64.96-.896 1.408s-.384.896-.576 1.408c-.128.384-.32.768-.448 1.152-.064.256-.064.448-.32.576-.192.128-.384 0-.512-.128-.064-.064-.128-.192-.128-.32l.384-1.344c.064-.256.192-.512.32-.832s.256-.576.384-.832c.192-.32.32-.64.576-.96.192-.448.512-.832.832-1.216l1.344-1.536c.384-.384.832-.768 1.28-1.088s.896-.64 1.344-.896l1.152-.576c.32-.128.576-.256.896-.384s.64-.256 1.024-.32c.512-.128 1.088-.192 1.6-.32.704-.192 1.472-.128 2.176-.128.96-.064 1.92.128 2.88.32.384.064.768.192 1.088.32s.64.192.96.32c.448.192.896.384 1.344.64.32.192.64.32.96.512.576.448 1.216.832 1.728 1.344.576.512 1.088 1.088 1.6 1.664.32.384.64.832.896 1.28.192.32.448.704.64 1.088.128.256.256.512.32.832.064.192.128.32.192.512.128.384.256.768.384 1.216.064.128.064.256.064.384 0 .064.064.128.128.128 0 0 .128 0 .128-.064.448-.448.832-.896 1.28-1.344.128-.128.256-.256.384-.32.256-.192.384-.128.64.128.128.128.128.512-.064.64l-2.56 2.56c-.192.192-.512.192-.704 0l-1.92-1.92c-.192-.192-.384-.384-.64-.576-.256-.256-.256-.448-.128-.704.192-.256.384-.256.64-.128l.384.384c.448.384.832.832 1.216 1.216.128-.064.128-.064.192-.064z"/></svg>