<svg xmlns="http://www.w3.org/2000/svg" viewBox="0 0 314 314"><title>Asset 1</title><g id="Layer_2" data-name="Layer 2"><g id="Слой_1" data-name="Слой 1"><path d="M226.5,296.41c-2.07.12-4.15,0-6.05,1.29a7.38,7.38,0,0,1-3.25.84c-1.74.28-2.8,1.57-4.09,2.47-.34.22-.84.56-1.12.5-2-.45-3.87-1.06-5.83-1.57a26.26,26.26,0,0,0-3.58-.61c-4.15-.28-8.29-.45-12.38-.79-.62-.05-1.24-.61-1.91-.89a13.83,13.83,0,0,0,.84-1.57,5.18,5.18,0,0,0,.51-1.29,38.4,38.4,0,0,0,0-6.61c-.17-1-1.4-2-2.3-2.75a23.43,23.43,0,0,0-2.75-1.68l.34-.56a12,12,0,0,0,3.19-.78,8.17,8.17,0,0,0,4.32-7.12c.28-5.37.28-10.75.39-16.13.06-3.59,1.4-6.84,2.24-10.25.67-2.69,2.41-4.65,3.25-7.17.28-.9,1.46-1.57.73-2.81a10.66,10.66,0,0,1-5.38,2.3,3,3,0,0,0-1.23.28c-3.59,2-7.56,2.3-11.49,2.69-1,.11-2,.45-3,.56a46.18,46.18,0,0,1-6,.79,79.71,79.71,0,0,1-10.81-.28,109.8,109.8,0,0,1-12.77-2.3,43.47,43.47,0,0,1-9.75-3.19c-2-1-4.26-1.52-6.16-2.69a14.44,14.44,0,0,0-2.92-1.68c-.39-.17-.61-1.46-.56-2.19s.79-1.12,1.07-1.74c.17-.28,0-.72-.06-1.12a5,5,0,0,0-.89.45c-.4.34-.73.73-1.07,1.07-1.68,1.68-3.53,3.13-4.76,5.26-.9,1.51-2.24,2.8-3.19,4.26a37.7,37.7,0,0,0-2.08,4c-.56,1.12-1.12,2.24-1.57,3.41s-.84,2.64-1.34,3.93c-.67,1.73-1.46,3.47-2.18,5.21-.57,1.29-1.13,2.57-1.69,3.92a81.78,81.78,0,0,0-3.41,9.35,19.36,19.36,0,0,0-.51,7.62,5.17,5.17,0,0,0,3.87,4.21,14.25,14.25,0,0,1,3.36,1.9,30.12,30.12,0,0,0-3.53,2.41,3.32,3.32,0,0,0-1.29,2,46.85,46.85,0,0,0,0,6.27,6.5,6.5,0,0,0,1,2.3c.67,1.23.06,1.51-1.06,1.51a40.45,40.45,0,0,0-5.16.17c-3.31.48-6.59,1-9.86,1.56a157.3,157.3,0,0,0,135-4.89C228.54,296.3,227.52,296.37,226.5,296.41Z"/><path d="M157,0A157,157,0,0,0,78.49,293c.34-.08.68-.16,1-.27a40.2,40.2,0,0,0,5-2.19,28.63,28.63,0,0,0,9.3-7,18.05,18.05,0,0,0,3-4.31A16.29,16.29,0,0,0,98.1,274c.28-4,.11-8,.56-11.88a36.52,36.52,0,0,1,2.18-7.45,14.86,14.86,0,0,1,1.74-4c2.57-3.87,2.13-8.07,1.73-12.33-.22-2.18,0-4.42-.33-6.61A73.68,73.68,0,0,0,101.9,224c-.05-.17-.11-.28-.16-.45-.34-3.53-2.36-6.28-4.21-9-1-1.51-1.9-3.25-3.8-4.26-1.57-.84-2.69-2.58-4-3.86s-2.74-2.58-4.14-3.87c-.06-.06-.23-.06-.28-.17-.68-1.62-2-2.63-3.25-3.81a23.73,23.73,0,0,1-1.46-2l-5.38-6.89a19.29,19.29,0,0,1-1.62-2.13c-.62-.95-.28-1.51.89-1.57s2.08-.28,3.14-.39l.11-.62c-1.62-.61-3.25-1.06-4.93-1.51-3-.56-6.22-.45-9-1.4-2.52-.84-5.32-1.06-7.5-2.86a7.1,7.1,0,0,1-.79-1,11,11,0,0,1,1.91-.45c1.34,0,2.69.17,4,.17a3.47,3.47,0,0,0,1.06-.4,3.57,3.57,0,0,0-.67-.95c-1.4-1-2.91-1.9-4.31-2.91a1.2,1.2,0,0,1-.34-1.12,1,1,0,0,1,1-.45,35.78,35.78,0,0,1,3.47,1.06c1.46.51,2.86,1.07,4.26,1.63l.39-.51-2.18-2.8c-.06,0-.11-.17-.23-.28-.78-.84-2-1.85-1.12-3s2,0,3,.34c.73.34,1.51.5,2.3.78l.44-.61c-.72-.79-1.45-1.57-2.12-2.41a15.75,15.75,0,0,1-1.18-2.07c1.51-.28,2.35-.45,3.42.5,1.23,1,3,1.4,4.59,2l.34-.56c-.62-.79-1.07-1.8-1.91-2.24-1.17-.73-.78-1.57-.67-2.53a6.24,6.24,0,0,1,2.3.45c1.17.79,1.57.73,2.18-.61.17-.4.73-.84,1.07-.79a68.05,68.05,0,0,1,9.58,1.4,24.82,24.82,0,0,0,8.4.73,9.73,9.73,0,0,0,1.68-.5,18.79,18.79,0,0,1,3.19-.73c5.16-.23,10.31-.28,15.47-.45a2.44,2.44,0,0,0,1.56-.67,4.83,4.83,0,0,0-1.28-.23c-2.36-.16-4.77-.22-7.12-.39a23,23,0,0,1-3.3-.73,13.69,13.69,0,0,0-2.64-.61c-1.45-.06-1.9-.79-1.51-2.08.9-2.8,1.68-5.65,2.8-8.34a57.63,57.63,0,0,1,3.81-8c1.35-2.35,3.14-4.48,4.71-6.72,1.12-1.57,2.24-3.19,3.36-4.76.11-.12.17-.28.28-.34,1.45-1.34,3-2.63,4.42-4s2.47-2.8,3.93-4a67.08,67.08,0,0,1,6.27-4.26c2.13-1.35,4.37-2.8,6.61-4.09.95-.56,2.07-.84,3-1.35,2.18-1.06,4.31-2.24,6.5-3.19,3.08-1.34,6.16-2.69,9.24-3.81a19.39,19.39,0,0,1,4.76-.84,116,116,0,0,1,12.44-1.06c3.81,0,7.56.72,11.37,1.12a6.61,6.61,0,0,1,1.57.28c2.35.72,4.71,1.45,7.06,2.24a.22.22,0,0,1,.11.05c2.52,1.07,5.1,2.08,7.62,3.2A13.63,13.63,0,0,1,203,110c1.4,1.06,2.47.72,3.19-.9a18.77,18.77,0,0,1,1.57-2.52,20.64,20.64,0,0,0,3.14-9.53,23.87,23.87,0,0,0-.39-4.87,18.33,18.33,0,0,0-3.14-8,18,18,0,0,0-5.43-5.6A14.68,14.68,0,0,0,194.29,77c-5.38.17-10.7.73-16,1.34-2.4.28-4.76,1.29-7.17,1.68a60.51,60.51,0,0,1-7.22.56c-2.19.12-3.31-1.62-4.49-3-.33-.44.34-1.79.56-2.85-1.06-.73-1.17-1.91-.16-3.31,1.9-2.63,4.65-4,7.39-5.54,3.08-1.69,6.5-2.3,9.86-3.25a36.13,36.13,0,0,1,8.18-1.12,5.18,5.18,0,0,0,1.29-.51c-1.46-.84-2.69-1.57-4-2.18-1.62-.84-3.19-1.63-4.82-2.41a34.21,34.21,0,0,1-3.25-1.35c-3-1.73-6-3.41-8.85-5.32-1.73-1.18-3.19-2.86-4.87-4.2s-2.47-3.25-3.59-5a1.33,1.33,0,0,1-.11-1.12,12,12,0,0,1,4.54-5.32c.17-.06.28-.22.45-.22,3.47-.17,6.89-.68,10.31.78a42.16,42.16,0,0,0,7.39,2,65.17,65.17,0,0,0,7.4,1.12,24.1,24.1,0,0,0,4.93-.33c1.23-.17,2.41-.56,3.58-.79a9.4,9.4,0,0,0,5.16-2.52,59.53,59.53,0,0,1,6.94-5.38c1.35-.89,3.08-1.23,4.6-1.9,5.6-2.52,11.43-1.57,17.25-1.18A13.1,13.1,0,0,1,234,27.39c2.47,1.23,5.1,2.24,7.17,4,1.35,1.12,3.36,2,3.87,4,0,.28.39.5.56.78,1.12,1.57,2.24,3.08,3.3,4.65,2.36,3.47,2.86,7.51,3.7,11.43.51,2.3.17,4.71.51,7.06.72,5.26,1.68,10.47,2.4,15.74a25,25,0,0,1,.06,6.11c-.73,5.6-1.62,11.15-2.63,16.69a34.38,34.38,0,0,1-1.8,5.1c-.11.28-.28.56-.39.9-.56,1.51-1.17,3-1.62,4.48a38.65,38.65,0,0,0-1.46,5.54,99.53,99.53,0,0,0-1.29,12.11,45.64,45.64,0,0,0,1.12,9.07,44.53,44.53,0,0,0,1.91,7.56,62.56,62.56,0,0,0,3.53,7.4c1.06,2.07,2.24,4.15,3.36,6.22a1.73,1.73,0,0,0,.28.56c1,1.06,2,2.07,3.19,3.3.11-.5.45-1.12.34-1.4-.62-1.23-1.51-2.35-2.13-3.58s-1.23-2.75-1.79-4.09c-.62-1.51-1.18-3.08-1.74-4.6a8.1,8.1,0,0,1-.62-1.62c-.61-3.25-1.29-6.5-1.79-9.8a5.24,5.24,0,0,1,.34-1.8,5,5,0,0,1,1.57.4,26.06,26.06,0,0,1,4.48,2.74c2.24,2.07,4.37,4.31,6.44,6.55a39.13,39.13,0,0,1,3.14,3.7c1.51,2.13,3.36,4.15,4.31,6.56A62.75,62.75,0,0,1,276,164.65a47,47,0,0,1,.34,17.25,44,44,0,0,1-3,10.26,72.83,72.83,0,0,1-3.64,6.89c-1.29,2.24-3.31,4.2-5,6.21-1.12,1.35-2.29,2.64-3.41,4a2.87,2.87,0,0,1-.68.45,41.72,41.72,0,0,1-4.48,3.08c-2.41,1.29-4.37,3.25-7.22,3.7-1.41.22-2.64,1.18-4,1.74-3,1.28-6.16,2.35-9.08,3.81a49.71,49.71,0,0,0-5.49,3.69c-.61.4-1.29.68-1.9,1.12a44.16,44.16,0,0,0-4.76,3.37,48,48,0,0,0-3.7,3.86,5.91,5.91,0,0,1-.56.56,56.77,56.77,0,0,0-4.2,4.15c-1.24,1.51-2.3,3.13-3.42,4.7-.79,1.12-1.68,2.24-2.41,3.36s-1.29,2.36-1.85,3.59c-1.12,2.52-2.24,5-3.36,7.51a9.19,9.19,0,0,0-.45,1.4,78.21,78.21,0,0,0-2.69,9.19c-.56,2.74-1,5.6.73,8.29A30.46,30.46,0,0,1,203.7,281a1.56,1.56,0,0,0,.22.45c1.46,1.34,3,2.52,4.37,4,1.52,1.62,3.7,2.13,5.38,3.3s3.87,1.52,5.49,2.52a16.35,16.35,0,0,0,6.16,2.3,9.42,9.42,0,0,1,5.05,2.33A157,157,0,0,0,157,0Z"/></g></g></svg>