<svg xmlns="http://www.w3.org/2000/svg" width="50" height="50" viewBox="0 0 32 32"><path d="M31.808 14.336c-.192-1.728-.64-3.456-1.408-5.056-1.728-3.584-4.416-6.208-8-7.808C20.992.832 19.584.448 18.112.256c-3.072-.384-6.016 0-8.896 1.408-2.944 1.344-5.248 3.392-6.912 6.144C1.216 9.664.448 11.648.192 13.824c-.384 3.072 0 6.016 1.28 8.832 1.6 3.456 4.16 6.016 7.616 7.744 1.664.832 3.456 1.344 5.312 1.472 2.688.256 5.248-.128 7.744-1.216 3.776-1.6 6.528-4.288 8.256-8 .704-1.472 1.152-3.072 1.344-4.736.064-.384.064-.704.128-1.088V15.36c0-.384-.064-.704-.064-1.024zM15.936 30.72C7.872 30.72 1.28 24.128 1.28 16S7.872 1.344 15.936 1.344 30.656 7.936 30.656 16s-6.592 14.72-14.72 14.72zm-2.624-9.984c-.384 0-.64-.32-.64-.64v-8.128c0-.384.32-.64.64-.64.384 0 .64.32.64.64v8.064c.064.384-.256.704-.64.704zm5.312 0c-.384 0-.64-.32-.64-.64v-8.128c0-.384.32-.64.64-.64.384 0 .64.32.64.64v8.064c0 .384-.32.704-.64.704z"/></svg>