<!-- Generated by IcoMoon.io -->
<svg version="1.1" xmlns="http://www.w3.org/2000/svg" width="50" height="50" viewBox="0 0 32 32">
<title></title>
<path d="M31.808 14.336c-0.192-1.728-0.64-3.456-1.408-5.056-1.728-3.584-4.416-6.208-8-7.808-1.408-0.64-2.816-1.024-4.288-1.216-3.072-0.384-6.016 0-8.896 1.408-2.944 1.344-5.248 3.392-6.912 6.144-1.088 1.856-1.856 3.84-2.112 6.016-0.384 3.072 0 6.016 1.28 8.832 1.6 3.456 4.16 6.016 7.616 7.744 1.664 0.832 3.456 1.344 5.312 1.472 2.688 0.256 5.248-0.128 7.744-1.216 3.776-1.6 6.528-4.288 8.256-8 0.704-1.472 1.152-3.072 1.344-4.736 0.064-0.384 0.064-0.704 0.128-1.088 0-0.064 0-0.128 0-0.128 0-0.448 0-0.896 0-1.344 0-0.384-0.064-0.704-0.064-1.024zM15.936 30.72c-8.064 0-14.656-6.592-14.656-14.72s6.592-14.656 14.656-14.656 14.72 6.592 14.72 14.656-6.592 14.72-14.72 14.72zM13.312 20.736v0c-0.384 0-0.64-0.32-0.64-0.64v-8.128c0-0.384 0.32-0.64 0.64-0.64v0c0.384 0 0.64 0.32 0.64 0.64v8.064c0.064 0.384-0.256 0.704-0.64 0.704zM18.624 20.736v0c-0.384 0-0.64-0.32-0.64-0.64v-8.128c0-0.384 0.32-0.64 0.64-0.64v0c0.384 0 0.64 0.32 0.64 0.64v8.064c0 0.384-0.32 0.704-0.64 0.704z"></path>
</svg>
