<!-- Generated by IcoMoon.io -->
<svg version="1.1" xmlns="http://www.w3.org/2000/svg" width="70" height="70" viewBox="0 0 28 32">
<title>person</title>
<path d="M5.573 24.343c0.020-0.155 0.123-0.281 0.262-0.334l0.003-0.001 0.2-0.077c-3.175-2.358-5.21-6.096-5.21-10.309 0-7.071 5.732-12.804 12.804-12.804s12.804 5.732 12.804 12.804c0 1.923-0.424 3.746-1.183 5.383l0.033-0.079c0.288 0.139 0.524 0.272 0.752 0.418l-0.030-0.018c0.787-1.671 1.247-3.629 1.247-5.695 0-7.527-6.102-13.63-13.63-13.63s-13.63 6.102-13.63 13.63c0 7.059 5.366 12.864 12.241 13.56l0.057 0.005c-2.482-0.251-4.718-1.137-6.593-2.491l0.040 0.027c-0.104-0.076-0.171-0.197-0.171-0.335 0-0.018 0.001-0.037 0.004-0.055l-0 0.002zM14.752 26.382h-2.038c-2.187-0.168-4.182-0.866-5.894-1.965l0.051 0.030c2.87-1.174 3.773-2.367 3.773-4.754 0.001-0.028 0.002-0.062 0.002-0.095 0-0.522-0.181-1.001-0.483-1.38l0.003 0.004c-0.415-0.591-0.7-1.303-0.797-2.073l-0.002-0.023c-0.054-0.419-0.332-0.761-0.708-0.907l-0.008-0.003c-0.258-0.123-0.522-0.252-0.645-1.458 0-0.645 0.284-0.832 0.277-0.832 0.143-0.067 0.239-0.21 0.239-0.375 0-0.027-0.003-0.054-0.008-0.079l0 0.003s-0.123-0.684-0.239-1.477c-0.348-2.122-0.342-4.438 2.329-5.521s4.657-0.316 4.883 0.064c0.089 0.13 0.222 0.225 0.376 0.264l0.004 0.001h0.11c0.024-0.001 0.052-0.001 0.080-0.001 0.82 0 1.56 0.342 2.086 0.89l0.001 0.001c1.103 1.29 0.768 4.709 0.561 5.805-0.003 0.019-0.005 0.041-0.005 0.063 0 0.163 0.089 0.306 0.222 0.381l0.002 0.001s0.297 0.181 0.297 0.813c-0.090 1.238-0.355 1.367-0.645 1.49-0.384 0.148-0.662 0.491-0.715 0.904l-0.001 0.006c-0.098 0.798-0.383 1.514-0.81 2.124l0.010-0.015c-0.295 0.373-0.473 0.851-0.473 1.37 0 0.036 0.001 0.071 0.003 0.106l-0-0.005c-0 0.009-0 0.019-0 0.029 0 0.287 0.016 0.571 0.048 0.85l-0.003-0.034c0.242-0.263 0.497-0.503 0.767-0.725l0.013-0.010c0-0.039 0-0.071 0-0.11-0.002-0.026-0.003-0.057-0.003-0.088 0-0.363 0.136-0.694 0.359-0.946l-0.001 0.001c0.479-0.677 0.811-1.49 0.932-2.371l0.003-0.028c0.039-0.213 0.071-0.226 0.258-0.316 0.503-0.239 0.961-0.587 1.084-2.2 0.003-0.040 0.005-0.087 0.005-0.134 0-0.484-0.186-0.925-0.49-1.254l0.001 0.001c0.148-0.993 0.587-4.644-0.787-6.244-0.671-0.724-1.623-1.178-2.682-1.187h-0.002c-0.71-0.748-2.954-1.367-5.773-0.226-3.225 1.29-3.225 4.115-2.838 6.412 0.071 0.51 0.155 0.98 0.2 1.258-0.303 0.34-0.488 0.791-0.488 1.285 0 0.045 0.002 0.090 0.005 0.134l-0-0.006c0.123 1.58 0.581 1.935 1.084 2.174 0.187 0.090 0.219 0.11 0.258 0.316 0.131 0.906 0.467 1.714 0.959 2.403l-0.011-0.017c0.206 0.246 0.331 0.567 0.331 0.916 0 0.029-0.001 0.059-0.003 0.088l0-0.004c0 1.935-0.529 2.961-3.78 4.193l-0.2 0.077c-0.158 0.060-0.269 0.211-0.269 0.387 0 0.138 0.067 0.26 0.171 0.335l0.001 0.001c1.837 1.328 4.075 2.214 6.503 2.459l0.057 0.005 0.497 0.039h1.677l0.439-0.032c-0.058-0.209-0.115-0.475-0.156-0.746l-0.005-0.041zM22.086 25.124c0.319-0.002 0.578-0.261 0.578-0.581 0-0.023-0.001-0.045-0.004-0.067l0 0.003c0-0.464 0-0.929 0-1.393s0-0.929 0-1.393c0.001-0.016 0.002-0.034 0.002-0.052 0-0.319-0.252-0.58-0.569-0.593l-0.001-0c-0.318 0.017-0.569 0.279-0.569 0.599 0 0.016 0.001 0.032 0.002 0.048l-0-0.002q0 1.393 0 2.787c-0.002 0.018-0.003 0.038-0.003 0.058 0 0.316 0.25 0.574 0.563 0.587l0.001 0zM24.473 22.731c-0.034-0.008-0.074-0.012-0.114-0.012-0.209 0-0.389 0.119-0.478 0.293l-0.001 0.003c-0.037 0.072-0.058 0.157-0.058 0.247 0 0.156 0.064 0.297 0.168 0.397l0 0c0.482 0.484 0.78 1.152 0.78 1.889 0 1.478-1.198 2.677-2.677 2.677s-2.677-1.198-2.677-2.677c0-0.718 0.283-1.37 0.743-1.851l-0.001 0.001c0.135-0.107 0.22-0.271 0.22-0.455 0-0.16-0.064-0.304-0.169-0.409l0 0c-0.099-0.088-0.231-0.141-0.375-0.141-0.203 0-0.382 0.107-0.482 0.268l-0.001 0.002c-0.666 0.663-1.078 1.581-1.078 2.595 0 0.556 0.124 1.083 0.346 1.555l-0.009-0.022c0.537 1.363 1.843 2.311 3.37 2.311 0.035 0 0.071-0 0.106-0.002l-0.005 0c2.103 0.045 3.806-1.684 3.812-4.218-0.085-0.87-0.471-1.636-1.051-2.206l-0-0c-0.096-0.111-0.22-0.196-0.362-0.243l-0.006-0.002zM22.002 19.177c-0.010-0-0.021-0-0.032-0-3.541 0-6.412 2.871-6.412 6.412s2.871 6.412 6.412 6.412c3.541 0 6.412-2.871 6.412-6.412v0c0-0 0-0 0-0 0-3.53-2.852-6.393-6.378-6.412h-0.002zM22.112 30.962c-0.002 0-0.004 0-0.006 0-2.971 0-5.38-2.409-5.38-5.38s2.409-5.38 5.38-5.38c2.962 0 5.365 2.394 5.38 5.352v0.001c0 0.008 0 0.017 0 0.026 0 2.969-2.405 5.376-5.373 5.38h-0z"></path>
</svg>
