<svg xmlns="http://www.w3.org/2000/svg" width="70" height="70" viewBox="0 0 28 32"><path d="M5.573 24.343c.02-.155.123-.281.262-.334l.003-.001.2-.077C2.863 21.573.828 17.835.828 13.622.828 6.551 6.56.818 13.632.818S26.436 6.55 26.436 13.622c0 1.923-.424 3.746-1.183 5.383l.033-.079c.288.139.524.272.752.418l-.03-.018c.787-1.671 1.247-3.629 1.247-5.695 0-7.527-6.102-13.63-13.63-13.63S-.005 6.103-.005 13.631c0 7.059 5.366 12.864 12.241 13.56l.057.005c-2.482-.251-4.718-1.137-6.593-2.491l.04.027c-.104-.076-.171-.197-.171-.335 0-.018.001-.037.004-.055v.002zm9.179 2.039h-2.038c-2.187-.168-4.182-.866-5.894-1.965l.051.03c2.87-1.174 3.773-2.367 3.773-4.754.001-.028.002-.062.002-.095 0-.522-.181-1.001-.483-1.38l.003.004c-.415-.591-.7-1.303-.797-2.073l-.002-.023c-.054-.419-.332-.761-.708-.907l-.008-.003c-.258-.123-.522-.252-.645-1.458 0-.645.284-.832.277-.832.143-.067.239-.21.239-.375 0-.027-.003-.054-.008-.079v.003s-.123-.684-.239-1.477c-.348-2.122-.342-4.438 2.329-5.521s4.657-.316 4.883.064c.089.13.222.225.376.264l.004.001h.11c.024-.001.052-.001.08-.001.82 0 1.56.342 2.086.89l.001.001c1.103 1.29.768 4.709.561 5.805-.003.019-.005.041-.005.063 0 .163.089.306.222.381l.002.001s.297.181.297.813c-.09 1.238-.355 1.367-.645 1.49-.384.148-.662.491-.715.904l-.001.006c-.098.798-.383 1.514-.81 2.124l.01-.015c-.295.373-.473.851-.473 1.37 0 .036.001.071.003.106v-.005.029c0 .287.016.571.048.85l-.003-.034c.242-.263.497-.503.767-.725l.013-.01v-.11c-.002-.026-.003-.057-.003-.088 0-.363.136-.694.359-.946l-.001.001c.479-.677.811-1.49.932-2.371l.003-.028c.039-.213.071-.226.258-.316.503-.239.961-.587 1.084-2.2.003-.04.005-.087.005-.134 0-.484-.186-.925-.49-1.254l.001.001c.148-.993.587-4.644-.787-6.244-.671-.724-1.623-1.178-2.682-1.187h-.002c-.71-.748-2.954-1.367-5.773-.226-3.225 1.29-3.225 4.115-2.838 6.412.071.51.155.98.2 1.258-.303.34-.488.791-.488 1.285 0 .045.002.09.005.134v-.006c.123 1.58.581 1.935 1.084 2.174.187.09.219.11.258.316.131.906.467 1.714.959 2.403l-.011-.017c.206.246.331.567.331.916 0 .029-.001.059-.003.088v-.004c0 1.935-.529 2.961-3.78 4.193l-.2.077c-.158.06-.269.211-.269.387 0 .138.067.26.171.335l.001.001c1.837 1.328 4.075 2.214 6.503 2.459l.057.005.497.039h1.677l.439-.032c-.058-.209-.115-.475-.156-.746l-.005-.041zm7.334-1.258c.319-.002.578-.261.578-.581 0-.023-.001-.045-.004-.067v.003-2.786c.001-.016.002-.034.002-.052 0-.319-.252-.58-.569-.593h-.001c-.318.017-.569.279-.569.599 0 .016.001.032.002.048v-.002 2.787c-.002.018-.003.038-.003.058 0 .316.25.574.563.587h.001zm2.387-2.393c-.034-.008-.074-.012-.114-.012-.209 0-.389.119-.478.293l-.001.003c-.037.072-.058.157-.058.247 0 .156.064.297.168.397.482.484.78 1.152.78 1.889 0 1.478-1.198 2.677-2.677 2.677s-2.677-1.198-2.677-2.677c0-.718.283-1.37.743-1.851l-.001.001c.135-.107.22-.271.22-.455 0-.16-.064-.304-.169-.409-.099-.088-.231-.141-.375-.141-.203 0-.382.107-.482.268l-.001.002c-.666.663-1.078 1.581-1.078 2.595 0 .556.124 1.083.346 1.555l-.009-.022c.537 1.363 1.843 2.311 3.37 2.311.035 0 .071 0 .106-.002h-.005c2.103.045 3.806-1.684 3.812-4.218-.085-.87-.471-1.636-1.051-2.206-.096-.111-.22-.196-.362-.243l-.006-.002zm-2.471-3.554h-.032c-3.541 0-6.412 2.871-6.412 6.412s2.871 6.412 6.412 6.412 6.412-2.871 6.412-6.412c0-3.53-2.852-6.393-6.378-6.412h-.002zm.11 11.785h-.006c-2.971 0-5.38-2.409-5.38-5.38s2.409-5.38 5.38-5.38c2.962 0 5.365 2.394 5.38 5.352v.027c0 2.969-2.405 5.376-5.373 5.38z"/></svg>