<svg xmlns="http://www.w3.org/2000/svg" width="50" height="50" viewBox="0 0 32 32"><path d="M31.872 14.272c-.192-1.792-.64-3.456-1.408-5.056-1.664-3.584-4.352-6.208-8-7.872C21.056.704 19.648.256 18.112.128c-3.072-.384-6.08 0-8.896 1.408C6.272 2.88 3.968 4.992 2.304 7.744 1.216 9.6.448 11.584.128 13.76c-.384 3.072 0 6.08 1.344 8.896 1.6 3.52 4.224 6.08 7.616 7.744 1.664.832 3.456 1.344 5.312 1.472 2.688.256 5.312-.128 7.808-1.216 3.776-1.664 6.528-4.352 8.32-8.064.704-1.472 1.152-3.072 1.344-4.736.064-.384.064-.704.128-1.088v-1.472c-.064-.32-.064-.64-.128-1.024zM16 30.784C7.872 30.784 1.216 24.128 1.216 16S7.872 1.216 16 1.216 30.784 7.872 30.784 16 24.128 30.784 16 30.784zm6.976-15.424c-.064-.064-.128-.064-.192-.128-2.816-1.664-5.696-3.328-8.512-5.056-.512-.32-1.088-.64-1.664-.96s-1.152.064-1.152.64V21.12c0 .32 0 .704.064 1.024.064.512.576.704 1.024.512.256-.128.512-.256.832-.448 2.688-1.536 5.376-3.136 8-4.672.576-.32 1.088-.64 1.664-1.024.192-.128.32-.256.384-.448 0-.256-.128-.448-.448-.704zm-1.856.768c-.064.128-.128.256-.256.32-.384.256-.768.448-1.152.704-1.856 1.088-3.712 2.176-5.504 3.2-.192.128-.384.192-.576.32-.32.128-.64 0-.704-.32-.064-.256-.064-.448-.064-.704V11.84c0-.448.384-.704.832-.448.384.192.768.448 1.152.64 1.984 1.152 3.904 2.304 5.888 3.456.064 0 .064.064.128.064.256.192.32.32.256.576z"/></svg>