<!-- Generated by IcoMoon.io -->
<svg version="1.1" xmlns="http://www.w3.org/2000/svg" width="50" height="50" viewBox="0 0 32 32">
<title></title>
<path d="M31.872 14.272c-0.192-1.792-0.64-3.456-1.408-5.056-1.664-3.584-4.352-6.208-8-7.872-1.408-0.64-2.816-1.088-4.352-1.216-3.072-0.384-6.080 0-8.896 1.408-2.944 1.344-5.248 3.456-6.912 6.208-1.088 1.856-1.856 3.84-2.176 6.016-0.384 3.072 0 6.080 1.344 8.896 1.6 3.52 4.224 6.080 7.616 7.744 1.664 0.832 3.456 1.344 5.312 1.472 2.688 0.256 5.312-0.128 7.808-1.216 3.776-1.664 6.528-4.352 8.32-8.064 0.704-1.472 1.152-3.072 1.344-4.736 0.064-0.384 0.064-0.704 0.128-1.088 0-0.064 0-0.128 0-0.128 0-0.448 0-0.896 0-1.344-0.064-0.32-0.064-0.64-0.128-1.024zM16 30.784c-8.128 0-14.784-6.656-14.784-14.784s6.656-14.784 14.784-14.784 14.784 6.656 14.784 14.784-6.656 14.784-14.784 14.784zM22.976 15.36c-0.064-0.064-0.128-0.064-0.192-0.128-2.816-1.664-5.696-3.328-8.512-5.056-0.512-0.32-1.088-0.64-1.664-0.96s-1.152 0.064-1.152 0.64c0 0.32 0 0.576 0 0.832 0 1.728 0 3.456 0 5.184s0 3.52 0 5.248c0 0.32 0 0.704 0.064 1.024 0.064 0.512 0.576 0.704 1.024 0.512 0.256-0.128 0.512-0.256 0.832-0.448 2.688-1.536 5.376-3.136 8-4.672 0.576-0.32 1.088-0.64 1.664-1.024 0.192-0.128 0.32-0.256 0.384-0.448 0-0.256-0.128-0.448-0.448-0.704zM21.12 16.128c-0.064 0.128-0.128 0.256-0.256 0.32-0.384 0.256-0.768 0.448-1.152 0.704-1.856 1.088-3.712 2.176-5.504 3.2-0.192 0.128-0.384 0.192-0.576 0.32-0.32 0.128-0.64 0-0.704-0.32-0.064-0.256-0.064-0.448-0.064-0.704 0-1.216 0-2.432 0-3.648s0-2.368 0-3.584c0-0.192 0-0.384 0-0.576 0-0.448 0.384-0.704 0.832-0.448 0.384 0.192 0.768 0.448 1.152 0.64 1.984 1.152 3.904 2.304 5.888 3.456 0.064 0 0.064 0.064 0.128 0.064 0.256 0.192 0.32 0.32 0.256 0.576z"></path>
</svg>
