<!-- Generated by IcoMoon.io -->
<svg version="1.1" xmlns="http://www.w3.org/2000/svg" width="50" height="50" viewBox="0 0 32 32">
<title></title>
<path d="M16 0c4.352 0 8.704 0 13.056 0 1.344 0 2.368 0.768 2.752 1.92 0.192 0.256 0.192 0.576 0.192 0.832 0 8.128 0 16.32 0 24.448 0 0.64-0.256 1.152-0.64 1.6-0.768 0.832-1.536 1.6-2.368 2.432-0.512 0.576-1.152 0.832-1.92 0.832-8.064-0.064-16.128-0.064-24.192-0.064-1.536 0-2.88-1.344-2.88-2.88 0.064-8.768 0.064-17.472 0-26.24 0-1.536 1.344-2.88 2.88-2.88 4.416 0.064 8.768 0 13.12 0zM1.536 16c0 4.416 0 8.832 0 13.312 0 0.768 0.384 1.152 1.152 1.152 2.176 0 4.352 0 6.464 0 0.448 0 0.512-0.064 0.512-0.576 0-1.728 0-3.52 0-5.248 0-0.128 0-0.32 0.064-0.384 0.448-0.576 0.96-0.96 1.792-0.96 0.96 0.064 1.984 0.064 2.944 0.064 1.92 0 3.84 0 5.76 0 1.28 0 2.048 0.64 1.984 1.984-0.064 1.536 0 3.072 0 4.608 0 0.32 0.128 0.512 0.448 0.512 1.536 0 3.072 0 4.608 0 0.192 0 0.384-0.064 0.512-0.192 0.704-0.704 1.408-1.472 2.112-2.176 0.32-0.32 0.576-0.64 0.576-1.152 0-7.616 0-15.232 0-22.784 0-0.576 0-1.088 0-1.664 0-0.448-0.448-0.96-0.896-0.96-0.832 0-1.664 0-2.496 0-0.384 0-0.512 0.192-0.512 0.512 0 4.288 0 8.64 0 12.928 0 0.448 0 0.832-0.064 1.28 0 0.192-0.128 0.384-0.192 0.576-0.448 0.576-1.024 0.768-1.728 0.768-5.504 0-10.944 0-16.448 0-0.384 0-0.768 0-1.152 0-0.768-0.064-1.472-0.704-1.472-1.472 0-4.608 0-9.28 0-13.888 0-0.576-0.064-0.64-0.64-0.64-0.64 0-1.28 0.064-1.92 0-0.896-0.128-1.408 0.448-1.408 1.28 0 4.352 0 8.768 0 13.12zM16 16.064c0 0 0 0 0 0 2.816 0 5.632 0 8.448 0 0.512 0 0.64-0.128 0.64-0.512 0-1.152 0-2.368 0-3.52 0-3.264 0-6.528 0-9.728 0-0.64-0.064-0.704-0.64-0.704-5.44 0-10.88 0-16.32 0-0.192 0-0.448 0-0.64 0-0.384 0-0.512 0.192-0.512 0.576 0 0.512 0 1.024 0 1.472 0 3.84 0 7.744 0 11.584 0 0.896 0 0.896 0.896 0.896 2.688-0.064 5.44-0.064 8.128-0.064zM17.536 30.144c0 0 0 0 0 0 0.896 0 1.792 0 2.624 0 0.32 0 0.576-0.128 0.576-0.448 0-1.408 0-2.88 0-4.288 0-0.32-0.192-0.512-0.512-0.512-1.728 0-3.456 0-5.12 0-0.704 0-0.768 0.128-0.768 0.832 0 1.216 0 2.496 0 3.712 0 0.576 0.128 0.704 0.704 0.704 0.832 0 1.664 0 2.496 0zM11.264 27.456c0 0 0 0 0 0 0 0.576 0 1.088 0 1.664 0 1.024 0 1.024 1.024 0.96 0.448 0 0.576-0.192 0.576-0.64 0-1.216 0-2.368 0-3.584 0-1.024 0-1.024-1.024-1.088-0.448 0-0.576 0.064-0.576 0.512 0 0.832 0 1.472 0 2.176z"></path>
</svg>
