<svg xmlns="http://www.w3.org/2000/svg" width="50" height="50" viewBox="0 0 32 32"><path d="M16 0h13.056c1.344 0 2.368.768 2.752 1.92.192.256.192.576.192.832V27.2c0 .64-.256 1.152-.64 1.6-.768.832-1.536 1.6-2.368 2.432-.512.576-1.152.832-1.92.832C19.008 32 10.944 32 2.88 32 1.344 32 0 30.656 0 29.12c.064-8.768.064-17.472 0-26.24C0 1.344 1.344 0 2.88 0 7.296.064 11.648 0 16 0zM1.536 16v13.312c0 .768.384 1.152 1.152 1.152h6.464c.448 0 .512-.064.512-.576V24.64c0-.128 0-.32.064-.384.448-.576.96-.96 1.792-.96.96.064 1.984.064 2.944.064h5.76c1.28 0 2.048.64 1.984 1.984-.064 1.536 0 3.072 0 4.608 0 .32.128.512.448.512h4.608c.192 0 .384-.064.512-.192.704-.704 1.408-1.472 2.112-2.176.32-.32.576-.64.576-1.152V2.496c0-.448-.448-.96-.896-.96h-2.496c-.384 0-.512.192-.512.512v12.928c0 .448 0 .832-.064 1.28 0 .192-.128.384-.192.576-.448.576-1.024.768-1.728.768h-17.6c-.768-.064-1.472-.704-1.472-1.472V2.24c0-.576-.064-.64-.64-.64-.64 0-1.28.064-1.92 0-.896-.128-1.408.448-1.408 1.28V16zM16 16.064h8.448c.512 0 .64-.128.64-.512V2.304c0-.64-.064-.704-.64-.704H7.488c-.384 0-.512.192-.512.576v13.056c0 .896 0 .896.896.896 2.688-.064 5.44-.064 8.128-.064zm1.536 14.08h2.624c.32 0 .576-.128.576-.448v-4.288c0-.32-.192-.512-.512-.512h-5.12c-.704 0-.768.128-.768.832v3.712c0 .576.128.704.704.704h2.496zm-6.272-2.688v1.664c0 1.024 0 1.024 1.024.96.448 0 .576-.192.576-.64v-3.584c0-1.024 0-1.024-1.024-1.088-.448 0-.576.064-.576.512v2.176z"/></svg>