<!-- Generated by IcoMoon.io -->
<svg version="1.1" xmlns="http://www.w3.org/2000/svg" width="50" height="50" viewBox="0 0 32 32">
<title></title>
<path d="M15.424 21.44c3.904-4.096 7.616-7.936 11.264-11.712-2.368-4.544-9.408-6.784-14.976-4.928-6.336 2.176-10.048 8.384-8.96 15.168 0.96 6.208 6.72 11.072 13.184 11.072 4.224 0 7.68-1.664 10.432-4.864 2.688-3.2 3.456-6.912 2.944-11.008 0-0.256 0.64-0.384 0.768-0.192 0.192 0.512 0.256 1.024 0.256 1.536 0.576 6.784-3.84 13.056-10.368 14.976-5.568 1.6-11.584-0.32-15.232-4.736-3.712-4.608-4.288-10.816-1.536-15.936 2.752-5.056 8.32-8.064 14.080-7.488 4.224 0.448 7.552 2.368 10.24 5.696 0.448 0.576 0.384 0.96-0.064 1.408-3.712 3.84-7.424 7.744-11.136 11.648-0.512 0.576-0.96 0.512-1.472 0-1.088-1.088-2.176-2.176-3.264-3.264-0.256-0.256-0.704-0.704-0.384-1.024 0.448-0.384 0.832 0.128 1.024 0.32 1.088 0.96 2.112 2.112 3.2 3.328zM13.248 1.344c1.664-0.256 3.392-0.256 5.12 0 0.32-0.32 0.384-0.832 0.128-1.152-1.664-0.256-3.52-0.32-5.184-0.064-0.32 0.32-0.448 0.832-0.064 1.216z"></path>
</svg>
