<svg xmlns="http://www.w3.org/2000/svg" width="50" height="50" viewBox="0 0 32 32"><path d="M15.424 21.44c3.904-4.096 7.616-7.936 11.264-11.712C24.32 5.184 17.28 2.944 11.712 4.8c-6.336 2.176-10.048 8.384-8.96 15.168.96 6.208 6.72 11.072 13.184 11.072 4.224 0 7.68-1.664 10.432-4.864 2.688-3.2 3.456-6.912 2.944-11.008 0-.256.64-.384.768-.192.192.512.256 1.024.256 1.536.576 6.784-3.84 13.056-10.368 14.976-5.568 1.6-11.584-.32-15.232-4.736C1.024 22.144.448 15.936 3.2 10.816c2.752-5.056 8.32-8.064 14.08-7.488 4.224.448 7.552 2.368 10.24 5.696.448.576.384.96-.064 1.408-3.712 3.84-7.424 7.744-11.136 11.648-.512.576-.96.512-1.472 0l-3.264-3.264c-.256-.256-.704-.704-.384-1.024.448-.384.832.128 1.024.32 1.088.96 2.112 2.112 3.2 3.328zM13.248 1.344c1.664-.256 3.392-.256 5.12 0 .32-.32.384-.832.128-1.152-1.664-.256-3.52-.32-5.184-.064-.32.32-.448.832-.064 1.216z"/></svg>