<svg xmlns="http://www.w3.org/2000/svg" width="32" height="32"><path d="M16 6.667c-5.146 0-9.333 4.187-9.333 9.333s4.187 9.333 9.333 9.333 9.333-4.187 9.333-9.333S21.146 6.667 16 6.667zM16 24c-4.411 0-8-3.589-8-8s3.589-8 8-8 8 3.589 8 8-3.589 8-8 8zm0-18.667c.369 0 .667-.298.667-.667v-4c0-.368-.298-.667-.667-.667s-.667.298-.667.667v4c0 .369.298.667.667.667zm0 21.334c-.368 0-.667.298-.667.667v4c0 .369.298.667.667.667s.667-.298.667-.667v-4c0-.369-.298-.667-.667-.667zM7.515 8.458c.13.13.301.195.471.195s.341-.065.471-.195c.26-.26.26-.682 0-.943L5.628 4.686c-.26-.26-.682-.26-.943 0s-.26.682 0 .943l2.829 2.829zm16.97 15.084c-.26-.26-.682-.26-.943 0s-.26.682 0 .943l2.829 2.829c.13.13.301.195.471.195s.341-.065.471-.195c.26-.26.26-.682 0-.943l-2.829-2.829zM5.333 16c0-.368-.298-.667-.667-.667h-4c-.368 0-.667.298-.667.667s.298.667.667.667h4c.369 0 .667-.298.667-.667zm26-.667h-4c-.369 0-.667.298-.667.667s.298.667.667.667h4c.369 0 .667-.298.667-.667s-.298-.667-.667-.667zM7.515 23.542l-2.829 2.829c-.26.26-.26.682 0 .943.13.13.301.195.471.195s.341-.065.471-.195l2.829-2.829c.26-.26.26-.682 0-.943s-.682-.26-.943 0zM24.014 8.653c.171 0 .341-.065.471-.195l2.829-2.829c.26-.26.26-.682 0-.943s-.682-.26-.943 0l-2.829 2.829c-.26.26-.26.682 0 .943.13.13.301.195.471.195z"/></svg>