<!-- Generated by IcoMoon.io -->
<svg version="1.1" xmlns="http://www.w3.org/2000/svg" width="32" height="32" viewBox="0 0 32 32">
<title>sun</title>
<path d="M16 6.667c-5.146 0-9.333 4.187-9.333 9.333s4.187 9.333 9.333 9.333 9.333-4.187 9.333-9.333-4.187-9.333-9.333-9.333zM16 24c-4.411 0-8-3.589-8-8s3.589-8 8-8 8 3.589 8 8-3.589 8-8 8zM16 5.333c0.369 0 0.667-0.298 0.667-0.667v-4c0-0.368-0.298-0.667-0.667-0.667s-0.667 0.298-0.667 0.667v4c0 0.369 0.298 0.667 0.667 0.667zM16 26.667c-0.368 0-0.667 0.298-0.667 0.667v4c0 0.369 0.298 0.667 0.667 0.667s0.667-0.298 0.667-0.667v-4c0-0.369-0.298-0.667-0.667-0.667zM7.515 8.458c0.13 0.13 0.301 0.195 0.471 0.195s0.341-0.065 0.471-0.195c0.26-0.26 0.26-0.682 0-0.943l-2.829-2.829c-0.26-0.26-0.682-0.26-0.943 0s-0.26 0.682 0 0.943l2.829 2.829zM24.485 23.542c-0.26-0.26-0.682-0.26-0.943 0s-0.26 0.682 0 0.943l2.829 2.829c0.13 0.13 0.301 0.195 0.471 0.195s0.341-0.065 0.471-0.195c0.26-0.26 0.26-0.682 0-0.943l-2.829-2.829zM5.333 16c0-0.368-0.298-0.667-0.667-0.667h-4c-0.368 0-0.667 0.298-0.667 0.667s0.298 0.667 0.667 0.667h4c0.369 0 0.667-0.298 0.667-0.667zM31.333 15.333h-4c-0.369 0-0.667 0.298-0.667 0.667s0.298 0.667 0.667 0.667h4c0.369 0 0.667-0.298 0.667-0.667s-0.298-0.667-0.667-0.667zM7.515 23.542l-2.829 2.829c-0.26 0.26-0.26 0.682 0 0.943 0.13 0.13 0.301 0.195 0.471 0.195s0.341-0.065 0.471-0.195l2.829-2.829c0.26-0.26 0.26-0.682 0-0.943s-0.682-0.26-0.943 0zM24.014 8.653c0.171 0 0.341-0.065 0.471-0.195l2.829-2.829c0.26-0.26 0.26-0.682 0-0.943s-0.682-0.26-0.943 0l-2.829 2.829c-0.26 0.26-0.26 0.682 0 0.943 0.13 0.13 0.301 0.195 0.471 0.195z"></path>
</svg>
