<svg xmlns="http://www.w3.org/2000/svg" fill="currentColor" viewBox="0 0 32 32"><path d="M16 .192C7.296.192.192 7.296.192 16S7.296 31.872 16 31.872 31.872 24.704 31.872 16 24.704.192 16 .192zm0 30.592C7.872 30.784 1.216 24.128 1.216 16S7.872 1.216 16 1.216 30.784 7.872 30.784 16 24.128 30.784 16 30.784zM9.152 7.552c-1.152 0-2.112.96-2.112 2.112s.96 2.112 2.112 2.112c1.152 0 2.112-.96 2.112-2.112s-.96-2.112-2.112-2.112zm0 3.2c-.576 0-1.024-.448-1.024-1.024S8.576 8.64 9.152 8.64c.576 0 1.088.448 1.088 1.088-.064.512-.512 1.024-1.088 1.024zm9.408-1.536h3.264c.32 0 .512-.256.512-.512s-.256-.512-.512-.512H18.56c-4.352 0-7.808 3.584-7.808 8.128s3.392 8.128 7.808 8.128h3.264c.32 0 .512-.256.512-.512s-.256-.512-.512-.512H18.56c-3.84 0-6.784-3.072-6.784-7.104s2.88-7.104 6.784-7.104z"/></svg>