<!-- Generated by IcoMoon.io -->
<svg version="1.1" xmlns="http://www.w3.org/2000/svg" width="50" height="50" viewBox="0 0 32 32">
<title>time2</title>
<path d="M28.068 0h-24.135c-2.168 0-3.932 1.764-3.932 3.932v24.135c0 2.168 1.764 3.932 3.932 3.932 0.36 0 0.651-0.292 0.651-0.651s-0.292-0.651-0.651-0.651c-1.45 0-2.63-1.18-2.63-2.63v-24.135c0-1.45 1.18-2.63 2.63-2.63h24.135c1.45 0 2.63 1.18 2.63 2.63v24.135c0 1.45-1.18 2.63-2.63 2.63h-17.169c-0.36 0-0.651 0.292-0.651 0.651s0.292 0.651 0.651 0.651h17.169c2.168 0 3.932-1.764 3.932-3.932v-24.135c0-2.168-1.764-3.932-3.932-3.932zM16 5.643c-0.36 0-0.651 0.292-0.651 0.651v9.706c0 0.173 0.069 0.338 0.191 0.46l10.853 10.853c0.127 0.127 0.294 0.191 0.46 0.191s0.333-0.064 0.46-0.191c0.254-0.254 0.254-0.667 0-0.921l-10.662-10.663v-9.436c0-0.36-0.292-0.651-0.651-0.651z"></path>
</svg>
