<svg xmlns="http://www.w3.org/2000/svg" width="50" height="50" viewBox="0 0 32 32"><path d="M24.32 28.928c0 .192.128.32.32.32h.192c.192 0 .32-.128.32-.32v-2.24h-.832v2.24zM16 27.584c-6.592 0-11.904-5.312-11.904-11.84S9.408 3.84 16 3.84s11.904 5.312 11.904 11.84c0 1.152-.192 2.304-.512 3.392.32.128.576.32.896.512.256-.768.384-1.536.512-2.304.064-.32.064-.576.064-.896V15.168c0-.256-.064-.576-.064-.832-.128-1.408-.512-2.752-1.152-4.032-1.408-2.88-3.52-4.992-6.464-6.336-1.088-.512-2.304-.832-3.52-1.024-2.496-.32-4.928 0-7.168 1.088C8.128 5.12 6.272 6.784 4.928 9.024 4.032 10.56 3.392 12.16 3.2 13.888c-.32 2.496 0 4.864 1.088 7.168 1.28 2.816 3.392 4.864 6.144 6.208 1.344.64 2.816 1.088 4.288 1.216.896.064 1.728.064 2.56 0-.128-.32-.256-.64-.32-.96-.32 0-.64.064-.96.064zm8.64-7.104c-3.2 0-5.824 2.56-5.824 5.76S21.44 32 24.64 32s5.824-2.56 5.824-5.76c0-3.2-2.624-5.76-5.824-5.76zm0 10.816c-2.816 0-5.12-2.24-5.12-5.056s2.304-5.056 5.12-5.056 5.12 2.24 5.12 5.056-2.304 5.056-5.12 5.056zm.576-7.744c0-.192-.128-.32-.32-.32h-.192c-.192 0-.32.128-.32.32v2.24h.896v-2.24zm2.24 2.24H22.08c-.192 0-.32.128-.32.32v.192c0 .192.128.32.32.32h5.376c.192 0 .32-.128.32-.32v-.192c.064-.128-.128-.32-.32-.32zM13.632 1.344c1.472-.256 2.944-.256 4.416 0 .256-.32.32-.704.128-.96C16.704.128 15.168.128 13.632.32c-.256.256-.384.704 0 1.024zm3.136 16.64c-.192.192-.576.192-.768 0l-4.608-4.608c-.192-.192-.192-.576 0-.768.192-.192.576-.192.768 0l4.608 4.608c.192.192.192.576 0 .768zm-.768 0c-.192-.192-.192-.576 0-.768l4.608-4.608c.192-.192.576-.192.768 0 .192.192.192.576 0 .768l-4.608 4.608c-.256.192-.576.192-.768 0z"/></svg>