<svg xmlns="http://www.w3.org/2000/svg" width="50" height="50" viewBox="0 0 32 32"><path d="M28.068 0H3.933C1.765 0 .001 1.764.001 3.932v24.135c0 2.168 1.764 3.932 3.932 3.932.36 0 .651-.292.651-.651s-.292-.651-.651-.651c-1.45 0-2.63-1.18-2.63-2.63V3.932c0-1.45 1.18-2.63 2.63-2.63h24.135c1.45 0 2.63 1.18 2.63 2.63v24.135c0 1.45-1.18 2.63-2.63 2.63H10.899c-.36 0-.651.292-.651.651s.292.651.651.651h17.169c2.168 0 3.932-1.764 3.932-3.932V3.932C32 1.764 30.236 0 28.068 0zM16 5.643c-.36 0-.651.292-.651.651V16c0 .173.069.338.191.46l10.853 10.853c.127.127.294.191.46.191s.333-.064.46-.191c.254-.254.254-.667 0-.921L16.651 15.729V6.293c0-.36-.292-.651-.651-.651z"/></svg>