<!-- Generated by IcoMoon.io -->
<svg version="1.1" xmlns="http://www.w3.org/2000/svg" width="50" height="50" viewBox="0 0 32 32">
<title>timer</title>
<path d="M24.32 28.928c0 0.192 0.128 0.32 0.32 0.32h0.192c0.192 0 0.32-0.128 0.32-0.32v-2.24h-0.832v2.24zM16 27.584c-6.592 0-11.904-5.312-11.904-11.84s5.312-11.904 11.904-11.904 11.904 5.312 11.904 11.84c0 1.152-0.192 2.304-0.512 3.392 0.32 0.128 0.576 0.32 0.896 0.512 0.256-0.768 0.384-1.536 0.512-2.304 0.064-0.32 0.064-0.576 0.064-0.896 0-0.064 0-0.064 0-0.128 0-0.384 0-0.704 0-1.088 0-0.256-0.064-0.576-0.064-0.832-0.128-1.408-0.512-2.752-1.152-4.032-1.408-2.88-3.52-4.992-6.464-6.336-1.088-0.512-2.304-0.832-3.52-1.024-2.496-0.32-4.928 0-7.168 1.088-2.368 1.088-4.224 2.752-5.568 4.992-0.896 1.536-1.536 3.136-1.728 4.864-0.32 2.496 0 4.864 1.088 7.168 1.28 2.816 3.392 4.864 6.144 6.208 1.344 0.64 2.816 1.088 4.288 1.216 0.896 0.064 1.728 0.064 2.56 0-0.128-0.32-0.256-0.64-0.32-0.96-0.32 0-0.64 0.064-0.96 0.064zM24.64 20.48c-3.2 0-5.824 2.56-5.824 5.76s2.624 5.76 5.824 5.76 5.824-2.56 5.824-5.76c0-3.2-2.624-5.76-5.824-5.76zM24.64 31.296c-2.816 0-5.12-2.24-5.12-5.056s2.304-5.056 5.12-5.056 5.12 2.24 5.12 5.056c0 2.816-2.304 5.056-5.12 5.056zM25.216 23.552c0-0.192-0.128-0.32-0.32-0.32h-0.192c-0.192 0-0.32 0.128-0.32 0.32v2.24h0.896v-2.24zM27.456 25.792v0h-5.376c-0.192 0-0.32 0.128-0.32 0.32v0.192c0 0.192 0.128 0.32 0.32 0.32v0h5.376c0.192 0 0.32-0.128 0.32-0.32v-0.192c0.064-0.128-0.128-0.32-0.32-0.32zM13.632 1.344c1.472-0.256 2.944-0.256 4.416 0 0.256-0.32 0.32-0.704 0.128-0.96-1.472-0.256-3.008-0.256-4.544-0.064-0.256 0.256-0.384 0.704 0 1.024zM16.768 17.984v0c-0.192 0.192-0.576 0.192-0.768 0l-4.608-4.608c-0.192-0.192-0.192-0.576 0-0.768v0c0.192-0.192 0.576-0.192 0.768 0l4.608 4.608c0.192 0.192 0.192 0.576 0 0.768zM16 17.984v0c-0.192-0.192-0.192-0.576 0-0.768l4.608-4.608c0.192-0.192 0.576-0.192 0.768 0v0c0.192 0.192 0.192 0.576 0 0.768l-4.608 4.608c-0.256 0.192-0.576 0.192-0.768 0z"></path>
</svg>
