<!-- Generated by IcoMoon.io -->
<svg version="1.1" xmlns="http://www.w3.org/2000/svg" width="50" height="50" viewBox="0 0 32 32">
<title></title>
<path d="M30.784 0.96c-0.32-0.64-0.896-0.96-1.6-0.96h-27.52c-0.448 0-0.832 0.32-0.832 0.768v26.496c0 2.624 2.112 4.736 4.736 4.736h17.024c2.624 0 4.736-2.112 4.736-4.736v-18.304c0-1.024 0.32-1.984 0.896-2.816l2.368-3.2c0.448-0.64 0.448-1.344 0.192-1.984zM29.376 1.984l-2.368 3.2c-0.768 1.088-1.216 2.368-1.216 3.776v18.304c0 1.792-1.408 3.2-3.2 3.2h-16.96c-1.792 0-3.2-1.408-3.2-3.2v-25.728h26.752c0.128 0 0.192 0.064 0.256 0.128s0 0.192-0.064 0.32zM24.704 14.016c-1.472-1.152-3.52-1.152-4.992 0-0.896 0.704-2.176 0.704-3.072 0-1.472-1.152-3.52-1.152-4.992 0 0 0 0 0 0 0-0.896 0.704-2.176 0.704-3.072 0-1.536-1.216-3.584-1.216-5.056 0-0.192 0.128-0.32 0.384-0.32 0.576v12.352c0 1.408 1.152 2.496 2.496 2.496h16.704c1.408 0 2.496-1.152 2.496-2.496v-12.352c0.064-0.192 0-0.448-0.192-0.576zM23.424 27.008c0 0.512-0.448 0.96-0.96 0.96h-16.704c-0.512 0-0.96-0.448-0.96-0.96v-11.968c0.896-0.512 1.984-0.448 2.752 0.192 1.472 1.152 3.52 1.152 4.992 0 0 0 0 0 0 0 0.896-0.704 2.176-0.704 3.072 0 1.472 1.152 3.52 1.152 4.992 0 0.832-0.64 1.92-0.704 2.752-0.192l0.064 11.968z"></path>
</svg>
