<svg xmlns="http://www.w3.org/2000/svg" width="50" height="50" viewBox="0 0 32 32"><path d="M30.784.96c-.32-.64-.896-.96-1.6-.96H1.664C1.216 0 .832.32.832.768v26.496C.832 29.888 2.944 32 5.568 32h17.024c2.624 0 4.736-2.112 4.736-4.736V8.96c0-1.024.32-1.984.896-2.816l2.368-3.2c.448-.64.448-1.344.192-1.984zm-1.408 1.024-2.368 3.2c-.768 1.088-1.216 2.368-1.216 3.776v18.304c0 1.792-1.408 3.2-3.2 3.2H5.632c-1.792 0-3.2-1.408-3.2-3.2V1.536h26.752c.128 0 .192.064.256.128s0 .192-.064.32zm-4.672 12.032c-1.472-1.152-3.52-1.152-4.992 0-.896.704-2.176.704-3.072 0-1.472-1.152-3.52-1.152-4.992 0-.896.704-2.176.704-3.072 0-1.536-1.216-3.584-1.216-5.056 0-.192.128-.32.384-.32.576v12.352c0 1.408 1.152 2.496 2.496 2.496H22.4c1.408 0 2.496-1.152 2.496-2.496V14.592c.064-.192 0-.448-.192-.576zm-1.28 12.992c0 .512-.448.96-.96.96H5.76c-.512 0-.96-.448-.96-.96V15.04c.896-.512 1.984-.448 2.752.192 1.472 1.152 3.52 1.152 4.992 0 .896-.704 2.176-.704 3.072 0 1.472 1.152 3.52 1.152 4.992 0 .832-.64 1.92-.704 2.752-.192l.064 11.968z"/></svg>